# xmcd CD database file
# Copyright (C) 1995 Ti Kan
#
# Track frame offsets:
#	180
#	16524
#	37295
#	53539
#	72145
#	88317
#	105771
#	119634
#	136621
#	157898
#	169489
#	183410
#	202967
#	228202
#	250364
#
# Disc length: 3663 seconds
#
# Revision: 1
# Processed by: cddbd v1.4b41PL1 Copyright (c) Steve Scherf et al.
# Submitted via: xmcd 1.4
#
DISCID=bd0e4d0f
DTITLE=What's in the Fridge?  The Musical Spices of Lousisiana  Volume 
DTITLE=3
DYEAR=1900
DGENRE=
TTITLE0=You Make Me Feel Good - Timothea
TTITLE1=Rock Me Baby - Nolan Struck and King Edward
TTITLE2=I'm Tired - Jackie Neal
TTITLE3=Six street Blues - B. B. Major Blues Band
TTITLE4=Leaving Mississippi - The Bluebirds
TTITLE5=Jenny Marie (Don't Go) - Cowboy Mouth
TTITLE6=Mine, Mine, Mine - Wayne Toups and Zydecajun
TTITLE7=L'abre Est Dans C'est Feuilles - Hadley J. Castille Third Genera
TTITLE7=tion
TTITLE8=Blood on the Old Cajun Moonn - Young and Restless
TTITLE9=Due Back in Dubock - Jim Ball
TTITLE10=He Said She Said - Todd Westbrook
TTITLE11=Gone By the River - Diana Thornton
TTITLE12=Angel Eyes - Philip Manuel
TTITLE13=Heaven's Shore - Betty Shirley
TTITLE14=Body and Soul - Tony Dagradi, James Singleton, John Vidacovich, 
TTITLE14=& Steve Masakowski
EXTD=
EXTT0=
EXTT1=
EXTT2=
EXTT3=
EXTT4=
EXTT5=
EXTT6=
EXTT7=
EXTT8=
EXTT9=
EXTT10=
EXTT11=
EXTT12=
EXTT13=
EXTT14=
PLAYORDER=
